<mxfile host="app.diagrams.net" modified="2020-10-13T17:40:35.196Z" agent="5.0 (X11; Linux x86_64) AppleWebKit/537.36 (KHTML, like Gecko) Chrome/85.0.4183.121 Safari/537.36" etag="57isJgd4J-nvbXsGPm-e" version="13.7.9" type="github">
  <diagram name="Page-1" id="42789a77-a242-8287-6e28-9cd8cfd52e62">
    <mxGraphModel dx="1232" dy="735" grid="1" gridSize="10" guides="1" tooltips="1" connect="1" arrows="1" fold="1" page="1" pageScale="1" pageWidth="1100" pageHeight="850" background="#ffffff" math="0" shadow="0">
      <root>
        <mxCell id="0" />
        <mxCell id="1" parent="0" />
        <mxCell id="NwwU0CA9VGmMvrQz_c5U-24" value="" style="rounded=0;orthogonalLoop=1;jettySize=auto;html=1;edgeStyle=orthogonalEdgeStyle;" edge="1" parent="1" source="NwwU0CA9VGmMvrQz_c5U-1" target="NwwU0CA9VGmMvrQz_c5U-2">
          <mxGeometry relative="1" as="geometry" />
        </mxCell>
        <mxCell id="NwwU0CA9VGmMvrQz_c5U-1" value="Chuck" style="rounded=1;whiteSpace=wrap;html=1;" vertex="1" parent="1">
          <mxGeometry x="80" y="80" width="110" height="35" as="geometry" />
        </mxCell>
        <mxCell id="NwwU0CA9VGmMvrQz_c5U-25" style="rounded=0;orthogonalLoop=1;jettySize=auto;html=1;exitX=1;exitY=0.5;exitDx=0;exitDy=0;entryX=0;entryY=0.5;entryDx=0;entryDy=0;edgeStyle=orthogonalEdgeStyle;" edge="1" parent="1" source="NwwU0CA9VGmMvrQz_c5U-2" target="NwwU0CA9VGmMvrQz_c5U-3">
          <mxGeometry relative="1" as="geometry" />
        </mxCell>
        <mxCell id="NwwU0CA9VGmMvrQz_c5U-27" style="rounded=0;orthogonalLoop=1;jettySize=auto;html=1;exitX=1;exitY=0.5;exitDx=0;exitDy=0;entryX=0;entryY=0.5;entryDx=0;entryDy=0;edgeStyle=orthogonalEdgeStyle;" edge="1" parent="1" source="NwwU0CA9VGmMvrQz_c5U-2" target="NwwU0CA9VGmMvrQz_c5U-4">
          <mxGeometry relative="1" as="geometry" />
        </mxCell>
        <mxCell id="NwwU0CA9VGmMvrQz_c5U-28" style="rounded=0;orthogonalLoop=1;jettySize=auto;html=1;exitX=1;exitY=0.5;exitDx=0;exitDy=0;entryX=0;entryY=0.5;entryDx=0;entryDy=0;edgeStyle=orthogonalEdgeStyle;" edge="1" parent="1" source="NwwU0CA9VGmMvrQz_c5U-2" target="NwwU0CA9VGmMvrQz_c5U-7">
          <mxGeometry relative="1" as="geometry" />
        </mxCell>
        <mxCell id="NwwU0CA9VGmMvrQz_c5U-29" style="rounded=0;orthogonalLoop=1;jettySize=auto;html=1;exitX=1;exitY=0.5;exitDx=0;exitDy=0;entryX=0;entryY=0.5;entryDx=0;entryDy=0;edgeStyle=orthogonalEdgeStyle;" edge="1" parent="1" source="NwwU0CA9VGmMvrQz_c5U-2" target="NwwU0CA9VGmMvrQz_c5U-8">
          <mxGeometry relative="1" as="geometry" />
        </mxCell>
        <mxCell id="NwwU0CA9VGmMvrQz_c5U-30" style="rounded=0;orthogonalLoop=1;jettySize=auto;html=1;exitX=1;exitY=0.5;exitDx=0;exitDy=0;entryX=0;entryY=0.5;entryDx=0;entryDy=0;edgeStyle=orthogonalEdgeStyle;" edge="1" parent="1" source="NwwU0CA9VGmMvrQz_c5U-2" target="NwwU0CA9VGmMvrQz_c5U-5">
          <mxGeometry relative="1" as="geometry" />
        </mxCell>
        <mxCell id="NwwU0CA9VGmMvrQz_c5U-31" style="rounded=0;orthogonalLoop=1;jettySize=auto;html=1;exitX=1;exitY=0.5;exitDx=0;exitDy=0;entryX=0;entryY=0.5;entryDx=0;entryDy=0;edgeStyle=orthogonalEdgeStyle;" edge="1" parent="1" source="NwwU0CA9VGmMvrQz_c5U-2" target="NwwU0CA9VGmMvrQz_c5U-6">
          <mxGeometry relative="1" as="geometry" />
        </mxCell>
        <mxCell id="NwwU0CA9VGmMvrQz_c5U-32" style="rounded=0;orthogonalLoop=1;jettySize=auto;html=1;exitX=1;exitY=0.5;exitDx=0;exitDy=0;entryX=0;entryY=0.5;entryDx=0;entryDy=0;edgeStyle=orthogonalEdgeStyle;" edge="1" parent="1" source="NwwU0CA9VGmMvrQz_c5U-2" target="NwwU0CA9VGmMvrQz_c5U-20">
          <mxGeometry relative="1" as="geometry" />
        </mxCell>
        <mxCell id="NwwU0CA9VGmMvrQz_c5U-2" value="Nginx" style="rounded=1;whiteSpace=wrap;html=1;" vertex="1" parent="1">
          <mxGeometry x="280" y="80" width="110" height="35" as="geometry" />
        </mxCell>
        <mxCell id="NwwU0CA9VGmMvrQz_c5U-26" value="" style="rounded=0;orthogonalLoop=1;jettySize=auto;html=1;edgeStyle=orthogonalEdgeStyle;" edge="1" parent="1" source="NwwU0CA9VGmMvrQz_c5U-3" target="NwwU0CA9VGmMvrQz_c5U-10">
          <mxGeometry relative="1" as="geometry" />
        </mxCell>
        <mxCell id="NwwU0CA9VGmMvrQz_c5U-34" style="rounded=0;orthogonalLoop=1;jettySize=auto;html=1;exitX=1;exitY=0.5;exitDx=0;exitDy=0;entryX=0;entryY=0.5;entryDx=0;entryDy=0;edgeStyle=orthogonalEdgeStyle;" edge="1" parent="1" source="NwwU0CA9VGmMvrQz_c5U-3" target="NwwU0CA9VGmMvrQz_c5U-9">
          <mxGeometry relative="1" as="geometry" />
        </mxCell>
        <mxCell id="NwwU0CA9VGmMvrQz_c5U-3" value="Atlas" style="rounded=1;whiteSpace=wrap;html=1;" vertex="1" parent="1">
          <mxGeometry x="480" y="80" width="110" height="35" as="geometry" />
        </mxCell>
        <mxCell id="NwwU0CA9VGmMvrQz_c5U-33" style="rounded=0;orthogonalLoop=1;jettySize=auto;html=1;exitX=1;exitY=0.5;exitDx=0;exitDy=0;entryX=0;entryY=0.5;entryDx=0;entryDy=0;edgeStyle=orthogonalEdgeStyle;" edge="1" parent="1" source="NwwU0CA9VGmMvrQz_c5U-4" target="NwwU0CA9VGmMvrQz_c5U-11">
          <mxGeometry relative="1" as="geometry" />
        </mxCell>
        <mxCell id="NwwU0CA9VGmMvrQz_c5U-4" value="Data&lt;br&gt;Generator" style="rounded=1;whiteSpace=wrap;html=1;" vertex="1" parent="1">
          <mxGeometry x="480" y="160" width="110" height="35" as="geometry" />
        </mxCell>
        <mxCell id="NwwU0CA9VGmMvrQz_c5U-38" style="rounded=0;orthogonalLoop=1;jettySize=auto;html=1;exitX=1;exitY=0.5;exitDx=0;exitDy=0;entryX=0;entryY=0.5;entryDx=0;entryDy=0;edgeStyle=orthogonalEdgeStyle;" edge="1" parent="1" source="NwwU0CA9VGmMvrQz_c5U-5" target="NwwU0CA9VGmMvrQz_c5U-16">
          <mxGeometry relative="1" as="geometry" />
        </mxCell>
        <mxCell id="NwwU0CA9VGmMvrQz_c5U-39" style="rounded=0;orthogonalLoop=1;jettySize=auto;html=1;exitX=1;exitY=0.5;exitDx=0;exitDy=0;entryX=0;entryY=0.5;entryDx=0;entryDy=0;edgeStyle=orthogonalEdgeStyle;" edge="1" parent="1" source="NwwU0CA9VGmMvrQz_c5U-5" target="NwwU0CA9VGmMvrQz_c5U-15">
          <mxGeometry relative="1" as="geometry" />
        </mxCell>
        <mxCell id="NwwU0CA9VGmMvrQz_c5U-5" value="Macro&lt;br&gt;Tracker" style="rounded=1;whiteSpace=wrap;html=1;" vertex="1" parent="1">
          <mxGeometry x="480" y="320" width="110" height="35" as="geometry" />
        </mxCell>
        <mxCell id="NwwU0CA9VGmMvrQz_c5U-40" style="rounded=0;orthogonalLoop=1;jettySize=auto;html=1;exitX=1;exitY=0.5;exitDx=0;exitDy=0;entryX=0;entryY=0.5;entryDx=0;entryDy=0;edgeStyle=orthogonalEdgeStyle;" edge="1" parent="1" source="NwwU0CA9VGmMvrQz_c5U-6" target="NwwU0CA9VGmMvrQz_c5U-18">
          <mxGeometry relative="1" as="geometry" />
        </mxCell>
        <mxCell id="NwwU0CA9VGmMvrQz_c5U-41" style="rounded=0;orthogonalLoop=1;jettySize=auto;html=1;exitX=1;exitY=0.5;exitDx=0;exitDy=0;entryX=0;entryY=0.5;entryDx=0;entryDy=0;edgeStyle=orthogonalEdgeStyle;" edge="1" parent="1" source="NwwU0CA9VGmMvrQz_c5U-6" target="NwwU0CA9VGmMvrQz_c5U-17">
          <mxGeometry relative="1" as="geometry" />
        </mxCell>
        <mxCell id="NwwU0CA9VGmMvrQz_c5U-6" value="Money&lt;br&gt;Dashboard" style="rounded=1;whiteSpace=wrap;html=1;" vertex="1" parent="1">
          <mxGeometry x="480" y="400" width="110" height="35" as="geometry" />
        </mxCell>
        <mxCell id="NwwU0CA9VGmMvrQz_c5U-35" style="rounded=0;orthogonalLoop=1;jettySize=auto;html=1;exitX=1;exitY=0.5;exitDx=0;exitDy=0;entryX=0;entryY=0.5;entryDx=0;entryDy=0;edgeStyle=orthogonalEdgeStyle;" edge="1" parent="1" source="NwwU0CA9VGmMvrQz_c5U-7" target="NwwU0CA9VGmMvrQz_c5U-13">
          <mxGeometry relative="1" as="geometry" />
        </mxCell>
        <mxCell id="NwwU0CA9VGmMvrQz_c5U-36" style="rounded=0;orthogonalLoop=1;jettySize=auto;html=1;exitX=1;exitY=0.5;exitDx=0;exitDy=0;entryX=0;entryY=0.5;entryDx=0;entryDy=0;edgeStyle=orthogonalEdgeStyle;" edge="1" parent="1" source="NwwU0CA9VGmMvrQz_c5U-7" target="NwwU0CA9VGmMvrQz_c5U-14">
          <mxGeometry relative="1" as="geometry" />
        </mxCell>
        <mxCell id="NwwU0CA9VGmMvrQz_c5U-7" value="PT Blog" style="rounded=1;whiteSpace=wrap;html=1;" vertex="1" parent="1">
          <mxGeometry x="480" y="200" width="110" height="35" as="geometry" />
        </mxCell>
        <mxCell id="NwwU0CA9VGmMvrQz_c5U-37" style="rounded=0;orthogonalLoop=1;jettySize=auto;html=1;exitX=1;exitY=0.5;exitDx=0;exitDy=0;entryX=0;entryY=0.5;entryDx=0;entryDy=0;edgeStyle=orthogonalEdgeStyle;" edge="1" parent="1" source="NwwU0CA9VGmMvrQz_c5U-8" target="NwwU0CA9VGmMvrQz_c5U-12">
          <mxGeometry relative="1" as="geometry" />
        </mxCell>
        <mxCell id="NwwU0CA9VGmMvrQz_c5U-8" value="Personal&lt;br&gt;Site" style="rounded=1;whiteSpace=wrap;html=1;" vertex="1" parent="1">
          <mxGeometry x="480" y="280" width="110" height="35" as="geometry" />
        </mxCell>
        <mxCell id="NwwU0CA9VGmMvrQz_c5U-9" value="Postgres" style="rounded=1;whiteSpace=wrap;html=1;" vertex="1" parent="1">
          <mxGeometry x="680" y="121" width="110" height="35" as="geometry" />
        </mxCell>
        <mxCell id="NwwU0CA9VGmMvrQz_c5U-10" value="Express" style="rounded=1;whiteSpace=wrap;html=1;" vertex="1" parent="1">
          <mxGeometry x="680" y="80" width="110" height="35" as="geometry" />
        </mxCell>
        <mxCell id="NwwU0CA9VGmMvrQz_c5U-11" value="Express" style="rounded=1;whiteSpace=wrap;html=1;" vertex="1" parent="1">
          <mxGeometry x="680" y="160" width="110" height="35" as="geometry" />
        </mxCell>
        <mxCell id="NwwU0CA9VGmMvrQz_c5U-12" value="Express" style="rounded=1;whiteSpace=wrap;html=1;" vertex="1" parent="1">
          <mxGeometry x="680" y="280" width="110" height="35" as="geometry" />
        </mxCell>
        <mxCell id="NwwU0CA9VGmMvrQz_c5U-13" value="Wordpress" style="rounded=1;whiteSpace=wrap;html=1;" vertex="1" parent="1">
          <mxGeometry x="680" y="200" width="110" height="35" as="geometry" />
        </mxCell>
        <mxCell id="NwwU0CA9VGmMvrQz_c5U-14" value="MySQL" style="rounded=1;whiteSpace=wrap;html=1;" vertex="1" parent="1">
          <mxGeometry x="680" y="240" width="110" height="35" as="geometry" />
        </mxCell>
        <mxCell id="NwwU0CA9VGmMvrQz_c5U-15" value="Postgres" style="rounded=1;whiteSpace=wrap;html=1;" vertex="1" parent="1">
          <mxGeometry x="680" y="360" width="110" height="35" as="geometry" />
        </mxCell>
        <mxCell id="NwwU0CA9VGmMvrQz_c5U-16" value="Express" style="rounded=1;whiteSpace=wrap;html=1;" vertex="1" parent="1">
          <mxGeometry x="680" y="320" width="110" height="35" as="geometry" />
        </mxCell>
        <mxCell id="NwwU0CA9VGmMvrQz_c5U-17" value="Postgres" style="rounded=1;whiteSpace=wrap;html=1;" vertex="1" parent="1">
          <mxGeometry x="680" y="440" width="110" height="35" as="geometry" />
        </mxCell>
        <mxCell id="NwwU0CA9VGmMvrQz_c5U-18" value="Express" style="rounded=1;whiteSpace=wrap;html=1;" vertex="1" parent="1">
          <mxGeometry x="680" y="400" width="110" height="35" as="geometry" />
        </mxCell>
        <mxCell id="NwwU0CA9VGmMvrQz_c5U-42" style="rounded=0;orthogonalLoop=1;jettySize=auto;html=1;exitX=1;exitY=0.5;exitDx=0;exitDy=0;entryX=0;entryY=0.5;entryDx=0;entryDy=0;edgeStyle=orthogonalEdgeStyle;" edge="1" parent="1" source="NwwU0CA9VGmMvrQz_c5U-20" target="NwwU0CA9VGmMvrQz_c5U-21">
          <mxGeometry relative="1" as="geometry" />
        </mxCell>
        <mxCell id="NwwU0CA9VGmMvrQz_c5U-43" style="rounded=0;orthogonalLoop=1;jettySize=auto;html=1;exitX=1;exitY=0.5;exitDx=0;exitDy=0;entryX=0;entryY=0.5;entryDx=0;entryDy=0;edgeStyle=orthogonalEdgeStyle;" edge="1" parent="1" source="NwwU0CA9VGmMvrQz_c5U-20" target="NwwU0CA9VGmMvrQz_c5U-22">
          <mxGeometry relative="1" as="geometry" />
        </mxCell>
        <mxCell id="NwwU0CA9VGmMvrQz_c5U-44" style="rounded=0;orthogonalLoop=1;jettySize=auto;html=1;exitX=1;exitY=0.5;exitDx=0;exitDy=0;entryX=0;entryY=0.5;entryDx=0;entryDy=0;edgeStyle=orthogonalEdgeStyle;" edge="1" parent="1" source="NwwU0CA9VGmMvrQz_c5U-20" target="NwwU0CA9VGmMvrQz_c5U-23">
          <mxGeometry relative="1" as="geometry" />
        </mxCell>
        <mxCell id="NwwU0CA9VGmMvrQz_c5U-20" value="Money&lt;br&gt;Dashboard" style="rounded=1;whiteSpace=wrap;html=1;" vertex="1" parent="1">
          <mxGeometry x="480" y="480" width="110" height="35" as="geometry" />
        </mxCell>
        <mxCell id="NwwU0CA9VGmMvrQz_c5U-21" value="Telegraf" style="rounded=1;whiteSpace=wrap;html=1;" vertex="1" parent="1">
          <mxGeometry x="680" y="480" width="110" height="35" as="geometry" />
        </mxCell>
        <mxCell id="NwwU0CA9VGmMvrQz_c5U-22" value="Grafana" style="rounded=1;whiteSpace=wrap;html=1;" vertex="1" parent="1">
          <mxGeometry x="680" y="520" width="110" height="35" as="geometry" />
        </mxCell>
        <mxCell id="NwwU0CA9VGmMvrQz_c5U-23" value="InfluxDB" style="rounded=1;whiteSpace=wrap;html=1;" vertex="1" parent="1">
          <mxGeometry x="680" y="560" width="110" height="35" as="geometry" />
        </mxCell>
      </root>
    </mxGraphModel>
  </diagram>
</mxfile>
